<mxfile host="app.diagrams.net" modified="2023-12-04T19:40:43.451Z" agent="Mozilla/5.0 (X11; Linux x86_64; rv:120.0) Gecko/20100101 Firefox/120.0" etag="uMDQyt2wpH4CzOYV8MdK" version="22.1.5" type="device">
  <diagram name="Pagina-1" id="Kx4IccF5TP9m-yPugrQJ">
    <mxGraphModel dx="819" dy="414" grid="1" gridSize="10" guides="1" tooltips="1" connect="1" arrows="1" fold="1" page="1" pageScale="1" pageWidth="827" pageHeight="1169" math="0" shadow="0">
      <root>
        <mxCell id="0" />
        <mxCell id="1" parent="0" />
        <mxCell id="nmuJ0MsZKHHojjxWRflp-19" value="" style="rounded=0;whiteSpace=wrap;html=1;fillColor=none;fontStyle=1" vertex="1" parent="1">
          <mxGeometry x="160" y="390" width="170" height="50" as="geometry" />
        </mxCell>
        <mxCell id="nmuJ0MsZKHHojjxWRflp-25" value="" style="rounded=0;whiteSpace=wrap;html=1;fillColor=none;fontStyle=1" vertex="1" parent="1">
          <mxGeometry x="474" y="390" width="210" height="50" as="geometry" />
        </mxCell>
        <mxCell id="nmuJ0MsZKHHojjxWRflp-1" value="&lt;font face=&quot;Courier New&quot; style=&quot;font-size: 16px;&quot;&gt;:- city(X), ~capital(X)&lt;br style=&quot;font-size: 16px;&quot;&gt;&lt;/font&gt;" style="text;html=1;strokeColor=none;fillColor=none;align=center;verticalAlign=middle;whiteSpace=wrap;rounded=0;fontFamily=Courier New;fontSize=16;fontStyle=1" vertex="1" parent="1">
          <mxGeometry x="269" y="240" width="290" height="30" as="geometry" />
        </mxCell>
        <mxCell id="nmuJ0MsZKHHojjxWRflp-2" value="&lt;font face=&quot;Courier New&quot; style=&quot;font-size: 16px;&quot;&gt;:- capital(X), ~capital(X).&lt;br style=&quot;font-size: 16px;&quot;&gt;&lt;/font&gt;" style="text;html=1;strokeColor=none;fillColor=none;align=center;verticalAlign=middle;whiteSpace=wrap;rounded=0;fontFamily=Courier New;fontSize=16;fontStyle=1" vertex="1" parent="1">
          <mxGeometry x="80" y="290" width="330" height="30" as="geometry" />
        </mxCell>
        <mxCell id="nmuJ0MsZKHHojjxWRflp-3" value="&lt;font face=&quot;Courier New&quot; style=&quot;font-size: 16px;&quot;&gt;:- region_capital(X), ~capital(X).&lt;br style=&quot;font-size: 16px;&quot;&gt;&lt;/font&gt;" style="text;html=1;strokeColor=none;fillColor=none;align=center;verticalAlign=middle;whiteSpace=wrap;rounded=0;fontFamily=Courier New;fontSize=16;fontStyle=1" vertex="1" parent="1">
          <mxGeometry x="414" y="290" width="330" height="30" as="geometry" />
        </mxCell>
        <mxCell id="nmuJ0MsZKHHojjxWRflp-4" value="" style="endArrow=none;html=1;rounded=0;entryX=0.5;entryY=1;entryDx=0;entryDy=0;exitX=0.5;exitY=0;exitDx=0;exitDy=0;fontStyle=1" edge="1" parent="1" source="nmuJ0MsZKHHojjxWRflp-2" target="nmuJ0MsZKHHojjxWRflp-1">
          <mxGeometry width="50" height="50" relative="1" as="geometry">
            <mxPoint x="390" y="390" as="sourcePoint" />
            <mxPoint x="440" y="340" as="targetPoint" />
          </mxGeometry>
        </mxCell>
        <mxCell id="nmuJ0MsZKHHojjxWRflp-5" value="" style="endArrow=none;html=1;rounded=0;entryX=0.5;entryY=1;entryDx=0;entryDy=0;exitX=0.5;exitY=0;exitDx=0;exitDy=0;fontStyle=1" edge="1" parent="1" source="nmuJ0MsZKHHojjxWRflp-3" target="nmuJ0MsZKHHojjxWRflp-1">
          <mxGeometry width="50" height="50" relative="1" as="geometry">
            <mxPoint x="390" y="390" as="sourcePoint" />
            <mxPoint x="440" y="340" as="targetPoint" />
          </mxGeometry>
        </mxCell>
        <mxCell id="nmuJ0MsZKHHojjxWRflp-7" value="" style="endArrow=none;html=1;rounded=0;entryX=0.5;entryY=1;entryDx=0;entryDy=0;exitX=0.5;exitY=0;exitDx=0;exitDy=0;fontStyle=1" edge="1" parent="1" source="nmuJ0MsZKHHojjxWRflp-8" target="nmuJ0MsZKHHojjxWRflp-2">
          <mxGeometry width="50" height="50" relative="1" as="geometry">
            <mxPoint x="285" y="360" as="sourcePoint" />
            <mxPoint x="410" y="360" as="targetPoint" />
          </mxGeometry>
        </mxCell>
        <mxCell id="nmuJ0MsZKHHojjxWRflp-9" value="&lt;font style=&quot;font-size: 16px;&quot; face=&quot;Courier New&quot;&gt;X/rome&lt;/font&gt;" style="edgeLabel;html=1;align=center;verticalAlign=middle;resizable=0;points=[];fontStyle=1" vertex="1" connectable="0" parent="nmuJ0MsZKHHojjxWRflp-7">
          <mxGeometry x="-0.0095" y="1" relative="1" as="geometry">
            <mxPoint x="45" as="offset" />
          </mxGeometry>
        </mxCell>
        <mxCell id="nmuJ0MsZKHHojjxWRflp-8" value="&lt;font face=&quot;Courier New&quot; style=&quot;font-size: 16px;&quot;&gt;:- ~capital(rome).&lt;br style=&quot;font-size: 16px;&quot;&gt;&lt;/font&gt;" style="text;html=1;strokeColor=none;fillColor=none;align=center;verticalAlign=middle;whiteSpace=wrap;rounded=0;fontFamily=Courier New;fontSize=16;fontStyle=1" vertex="1" parent="1">
          <mxGeometry x="120" y="340" width="250" height="30" as="geometry" />
        </mxCell>
        <mxCell id="nmuJ0MsZKHHojjxWRflp-11" value="&lt;font face=&quot;Courier New&quot; style=&quot;font-size: 16px;&quot;&gt;:- ~capital(bologna).&lt;br style=&quot;font-size: 16px;&quot;&gt;&lt;/font&gt;" style="text;html=1;strokeColor=none;fillColor=none;align=center;verticalAlign=middle;whiteSpace=wrap;rounded=0;fontFamily=Courier New;fontSize=16;fontStyle=1" vertex="1" parent="1">
          <mxGeometry x="454" y="340" width="250" height="30" as="geometry" />
        </mxCell>
        <mxCell id="nmuJ0MsZKHHojjxWRflp-13" value="" style="endArrow=none;html=1;rounded=0;entryX=0.5;entryY=1;entryDx=0;entryDy=0;exitX=0.5;exitY=0;exitDx=0;exitDy=0;fontStyle=1" edge="1" parent="1" source="nmuJ0MsZKHHojjxWRflp-11" target="nmuJ0MsZKHHojjxWRflp-3">
          <mxGeometry width="50" height="50" relative="1" as="geometry">
            <mxPoint x="219" y="360" as="sourcePoint" />
            <mxPoint x="219" y="330" as="targetPoint" />
          </mxGeometry>
        </mxCell>
        <mxCell id="nmuJ0MsZKHHojjxWRflp-14" value="&lt;font face=&quot;Courier New&quot; style=&quot;font-size: 16px;&quot;&gt;X/bologna&lt;/font&gt;" style="edgeLabel;html=1;align=center;verticalAlign=middle;resizable=0;points=[];fontSize=16;fontStyle=1" vertex="1" connectable="0" parent="nmuJ0MsZKHHojjxWRflp-13">
          <mxGeometry x="-0.0095" y="1" relative="1" as="geometry">
            <mxPoint x="61" y="1" as="offset" />
          </mxGeometry>
        </mxCell>
        <mxCell id="nmuJ0MsZKHHojjxWRflp-15" value="" style="endArrow=none;html=1;rounded=0;entryX=0.5;entryY=1;entryDx=0;entryDy=0;exitX=0.5;exitY=0;exitDx=0;exitDy=0;fontStyle=1" edge="1" parent="1" source="nmuJ0MsZKHHojjxWRflp-16" target="nmuJ0MsZKHHojjxWRflp-8">
          <mxGeometry width="50" height="50" relative="1" as="geometry">
            <mxPoint x="240" y="410" as="sourcePoint" />
            <mxPoint x="410" y="390" as="targetPoint" />
          </mxGeometry>
        </mxCell>
        <mxCell id="nmuJ0MsZKHHojjxWRflp-16" value="&lt;font face=&quot;Courier New&quot; style=&quot;font-size: 16px;&quot;&gt;:- capital(rome).&lt;br style=&quot;font-size: 16px;&quot;&gt;&lt;/font&gt;" style="text;html=1;strokeColor=none;fillColor=none;align=center;verticalAlign=middle;whiteSpace=wrap;rounded=0;fontFamily=Courier New;fontSize=16;fontStyle=1" vertex="1" parent="1">
          <mxGeometry x="160" y="390" width="170" height="20" as="geometry" />
        </mxCell>
        <mxCell id="nmuJ0MsZKHHojjxWRflp-17" value="" style="endArrow=none;html=1;rounded=0;entryX=0.5;entryY=1;entryDx=0;entryDy=0;exitX=0.5;exitY=0;exitDx=0;exitDy=0;fontStyle=1" edge="1" parent="1" source="nmuJ0MsZKHHojjxWRflp-18" target="nmuJ0MsZKHHojjxWRflp-16">
          <mxGeometry width="50" height="50" relative="1" as="geometry">
            <mxPoint x="245" y="440" as="sourcePoint" />
            <mxPoint x="340" y="390" as="targetPoint" />
          </mxGeometry>
        </mxCell>
        <mxCell id="nmuJ0MsZKHHojjxWRflp-18" value="success" style="text;html=1;strokeColor=none;fillColor=none;align=center;verticalAlign=middle;whiteSpace=wrap;rounded=0;fontFamily=Courier New;fontSize=16;fontStyle=1" vertex="1" parent="1">
          <mxGeometry x="160" y="420" width="170" height="20" as="geometry" />
        </mxCell>
        <mxCell id="nmuJ0MsZKHHojjxWRflp-20" value="fail" style="text;html=1;strokeColor=none;fillColor=none;align=center;verticalAlign=middle;whiteSpace=wrap;rounded=0;fontFamily=Courier New;fontSize=16;fontStyle=1" vertex="1" parent="1">
          <mxGeometry x="155" y="460" width="180" height="30" as="geometry" />
        </mxCell>
        <mxCell id="nmuJ0MsZKHHojjxWRflp-21" value="" style="endArrow=none;html=1;rounded=0;entryX=0.5;entryY=1;entryDx=0;entryDy=0;exitX=0.5;exitY=0;exitDx=0;exitDy=0;fontStyle=1" edge="1" parent="1" source="nmuJ0MsZKHHojjxWRflp-20" target="nmuJ0MsZKHHojjxWRflp-19">
          <mxGeometry width="50" height="50" relative="1" as="geometry">
            <mxPoint x="280" y="480" as="sourcePoint" />
            <mxPoint x="330" y="430" as="targetPoint" />
          </mxGeometry>
        </mxCell>
        <mxCell id="nmuJ0MsZKHHojjxWRflp-22" value="&lt;font face=&quot;Courier New&quot; style=&quot;font-size: 16px;&quot;&gt;:- capital(bologna).&lt;br style=&quot;font-size: 16px;&quot;&gt;&lt;/font&gt;" style="text;html=1;strokeColor=none;fillColor=none;align=center;verticalAlign=middle;whiteSpace=wrap;rounded=0;fontFamily=Courier New;fontSize=16;fontStyle=1" vertex="1" parent="1">
          <mxGeometry x="474" y="390" width="210" height="20" as="geometry" />
        </mxCell>
        <mxCell id="nmuJ0MsZKHHojjxWRflp-23" value="" style="endArrow=none;html=1;rounded=0;entryX=0.5;entryY=1;entryDx=0;entryDy=0;exitX=0.5;exitY=0;exitDx=0;exitDy=0;fontStyle=1" edge="1" parent="1" source="nmuJ0MsZKHHojjxWRflp-24" target="nmuJ0MsZKHHojjxWRflp-22">
          <mxGeometry width="50" height="50" relative="1" as="geometry">
            <mxPoint x="579" y="440" as="sourcePoint" />
            <mxPoint x="674" y="390" as="targetPoint" />
          </mxGeometry>
        </mxCell>
        <mxCell id="nmuJ0MsZKHHojjxWRflp-24" value="success" style="text;html=1;strokeColor=none;fillColor=none;align=center;verticalAlign=middle;whiteSpace=wrap;rounded=0;fontFamily=Courier New;fontSize=16;fontStyle=1" vertex="1" parent="1">
          <mxGeometry x="494" y="420" width="170" height="20" as="geometry" />
        </mxCell>
        <mxCell id="nmuJ0MsZKHHojjxWRflp-26" value="success" style="text;html=1;strokeColor=none;fillColor=none;align=center;verticalAlign=middle;whiteSpace=wrap;rounded=0;fontFamily=Courier New;fontSize=16;fontStyle=1" vertex="1" parent="1">
          <mxGeometry x="489" y="460" width="180" height="30" as="geometry" />
        </mxCell>
        <mxCell id="nmuJ0MsZKHHojjxWRflp-27" value="" style="endArrow=none;html=1;rounded=0;entryX=0.5;entryY=1;entryDx=0;entryDy=0;exitX=0.5;exitY=0;exitDx=0;exitDy=0;fontStyle=1" edge="1" parent="1" source="nmuJ0MsZKHHojjxWRflp-26" target="nmuJ0MsZKHHojjxWRflp-25">
          <mxGeometry width="50" height="50" relative="1" as="geometry">
            <mxPoint x="614" y="480" as="sourcePoint" />
            <mxPoint x="664" y="430" as="targetPoint" />
          </mxGeometry>
        </mxCell>
        <mxCell id="nmuJ0MsZKHHojjxWRflp-28" value="" style="endArrow=none;html=1;rounded=0;entryX=0.5;entryY=1;entryDx=0;entryDy=0;exitX=0.5;exitY=0;exitDx=0;exitDy=0;fontStyle=1" edge="1" parent="1" source="nmuJ0MsZKHHojjxWRflp-25" target="nmuJ0MsZKHHojjxWRflp-11">
          <mxGeometry width="50" height="50" relative="1" as="geometry">
            <mxPoint x="219" y="400" as="sourcePoint" />
            <mxPoint x="219" y="380" as="targetPoint" />
          </mxGeometry>
        </mxCell>
      </root>
    </mxGraphModel>
  </diagram>
</mxfile>
